<svg version="1.1" id="Camada_1" xmlns="http://www.w3.org/2000/svg" xmlns:xlink="http://www.w3.org/1999/xlink" x="0" y="0" viewBox="0 0 45 45" xml:space="preserve"><style>.st0{fill:#267f21}.st1{fill:#fff}.st4{fill:#444445}.st7{fill:#4db748}</style><g id="Camada_1_1_"><path class="st0" d="M3.2 6.1l1.4.7L5.8 6l-.2 1.5 1.1 1-1.4.3-.7 1.3L4 8.8l-1.5-.2 1-1zm38.6 0l-1.4.7-1.2-.8.2 1.5-1.1 1 1.4.3.7 1.3.6-1.3 1.5-.2-1-1z"/><path class="st1" d="M34.6 5.8c-6.4-6.7-17-7-23.7-.6s-7 17-.6 23.7 17 7 23.7.6 7-17 .6-23.7z"/><circle transform="rotate(-45.001 22.5 17.367)" cx="22.5" cy="17.4" fill="#64dd5e" r="15.2"/><path d="M13.4 17.2c4.6 4.8 12.3 5 17.1.4 2.7-2.6 4.1-6.3 3.7-10 5.1 6.1 4.6 15.2-1.2 20.8-6.1 5.8-15.7 5.6-21.5-.5C6.4 22.5 6 14.4 10.1 8.6c-.1 3.2 1.1 6.3 3.3 8.6z" fill="#63f453"/><path class="st4" d="M12 6.3c-6.1 5.8-6.3 15.5-.5 21.5 2.4 2.5 5.5 4.1 8.9 4.6 4 .6 8.1-.4 11.4-3h.1v-.1c.4-.3.8-.6 1.1-1 .7-.7 1.4-1.4 1.9-2.2 4.1-5.8 3.7-13.9-1.4-19.3C27.8.8 18.1.5 12 6.3zm.3.3c2.4-2.3 5.5-3.7 8.8-4l.6 1c-.9.6-2.8 2-4 3.8-1.3.2-4 .9-5.6 2l-1.2-1.3c.4-.5.9-1 1.4-1.5zm-1 9.7c1.7.2 3.6.9 4.5 1.2.2 1.1.8 4.4 2.7 6.9-.8 1.2-2.2 3.1-2.7 3.7-1.1-.4-3.6-1.2-5.1-2.3-.6-1.2-2.3-4.5-1.9-6 .7-1.5 1.8-2.8 2.5-3.5zm14 9.4c2.1-1.5 3.8-4.2 4.4-5.3 1.4.1 2.7-.1 4.8-.5.3 1.4.9 4.6.1 6.1-.8 1.2-1.9 2.3-3 3.1-.8.2-3.5.8-5.6.7-.1-.6-.4-3.1-.7-4.1zM19 24.4c-1.9-2.4-2.6-5.5-2.8-6.8l3.8-4.7c2.9-.1 6.2 1 7.4 1.5.8 1.3 1.7 4.5 1.9 5.9-.7 1.1-2.4 3.7-4.3 5.1-2-.4-4-.8-6-1zM18 7.5c1.3-1.8 3.3-3.2 4-3.7.9 0 4 .2 5.4.8.8.7 2.5 2.4 3.6 5.2-.7.6-2.8 2.9-3.9 4.1-1.4-.5-4.2-1.4-6.9-1.3C20 11.9 19 9 18 7.5zm15.3-.4c1.5 1.5 2.6 3.4 3.3 5.4l-1.1.9c-.6-.6-2.5-2.5-3.9-3.4-.7-2.1-1.9-4-3.5-5.5l.7-.7c1.6.8 3.1 2 4.5 3.3zm2 17.7c.2-1.9-.3-4.5-.5-5.4.7-1.6.8-4.8.8-5.7l1.1-.8c1.2 4 .7 8.3-1.4 11.9zm-14.9 7.3l.1-.5c1.5-.2 3.7-.8 5.1-1.4 1.7.2 3.9-.2 5.2-.5-3.1 2-6.8 2.9-10.4 2.4zm-8.7-4.5c-.4-.4-.8-.9-1.1-1.3h.1c1.7 1.1 4.2 2 5.2 2.3 1.1 1.3 2.9 2.4 4.2 3l-.1.4c-3.1-.5-6-2.1-8.3-4.4zm-1-19.2l1.2 1.2c-.5 1-.9 4.8-.9 6.4-.7.7-1.8 2-2.5 3.5-.3-.2-.6-.3-.8-.4-.4-3.8.7-7.6 3-10.7z"/><path class="st4" d="M12 6.3c-6.1 5.8-6.3 15.5-.5 21.5 2.4 2.5 5.5 4.1 8.9 4.6 4 .6 8.1-.4 11.4-3h.1v-.1c.4-.3.8-.6 1.1-1 .7-.7 1.4-1.4 1.9-2.2 4.1-5.8 3.7-13.9-1.4-19.3C27.8.8 18.1.5 12 6.3zm.3.3c2.4-2.3 5.5-3.7 8.8-4l.6 1c-.9.6-2.8 2-4 3.8-1.3.2-4 .9-5.6 2l-1.2-1.3c.4-.5.9-1 1.4-1.5zm-1 9.7c1.7.2 3.6.9 4.5 1.2.2 1.1.8 4.4 2.7 6.9-.8 1.2-2.2 3.1-2.7 3.7-1.1-.4-3.6-1.2-5.1-2.3-.6-1.2-2.3-4.5-1.9-6 .7-1.5 1.8-2.8 2.5-3.5zm14 9.4c2.1-1.5 3.8-4.2 4.4-5.3 1.4.1 2.7-.1 4.8-.5.3 1.4.9 4.6.1 6.1-.8 1.2-1.9 2.3-3 3.1-.8.2-3.5.8-5.6.7-.1-.6-.4-3.1-.7-4.1zM19 24.4c-1.9-2.4-2.6-5.5-2.8-6.8l3.8-4.7c2.9-.1 6.2 1 7.4 1.5.8 1.3 1.7 4.5 1.9 5.9-.7 1.1-2.4 3.7-4.3 5.1-2-.4-4-.8-6-1zM18 7.5c1.3-1.8 3.3-3.2 4-3.7.9 0 4 .2 5.4.8.8.7 2.5 2.4 3.6 5.2-.7.6-2.8 2.9-3.9 4.1-1.4-.5-4.2-1.4-6.9-1.3C20 11.9 19 9 18 7.5zm15.3-.4c1.5 1.5 2.6 3.4 3.3 5.4l-1.1.9c-.6-.6-2.5-2.5-3.9-3.4-.7-2.1-1.9-4-3.5-5.5l.7-.7c1.6.8 3.1 2 4.5 3.3zm2 17.7c.2-1.9-.3-4.5-.5-5.4.7-1.6.8-4.8.8-5.7l1.1-.8c1.2 4 .7 8.3-1.4 11.9zm-14.9 7.3l.1-.5c1.5-.2 3.7-.8 5.1-1.4 1.7.2 3.9-.2 5.2-.5-3.1 2-6.8 2.9-10.4 2.4zm-8.7-4.5c-.4-.4-.8-.9-1.1-1.3h.1c1.7 1.1 4.2 2 5.2 2.3 1.1 1.3 2.9 2.4 4.2 3l-.1.4c-3.1-.5-6-2.1-8.3-4.4zm-1-19.2l1.2 1.2c-.5 1-.9 4.8-.9 6.4-.7.7-1.8 2-2.5 3.5-.3-.2-.6-.3-.8-.4-.4-3.8.7-7.6 3-10.7z"/><path class="st4" d="M12 6.3c-6.1 5.8-6.3 15.5-.5 21.5 2.4 2.5 5.5 4.1 8.9 4.6 4 .6 8.1-.4 11.4-3h.1v-.1c.4-.3.8-.6 1.1-1 .7-.7 1.4-1.4 1.9-2.2 4.1-5.8 3.7-13.9-1.4-19.3C27.8.8 18.1.5 12 6.3zm.3.3c2.4-2.3 5.5-3.7 8.8-4l.6 1c-.9.6-2.8 2-4 3.8-1.3.2-4 .9-5.6 2l-1.2-1.3c.4-.5.9-1 1.4-1.5zm-1 9.7c1.7.2 3.6.9 4.5 1.2.2 1.1.8 4.4 2.7 6.9-.8 1.2-2.2 3.1-2.7 3.7-1.1-.4-3.6-1.2-5.1-2.3-.6-1.2-2.3-4.5-1.9-6 .7-1.5 1.8-2.8 2.5-3.5zm14 9.4c2.1-1.5 3.8-4.2 4.4-5.3 1.4.1 2.7-.1 4.8-.5.3 1.4.9 4.6.1 6.1-.8 1.2-1.9 2.3-3 3.1-.8.2-3.5.8-5.6.7-.1-.6-.4-3.1-.7-4.1zM19 24.4c-1.9-2.4-2.6-5.5-2.8-6.8l3.8-4.7c2.9-.1 6.2 1 7.4 1.5.8 1.3 1.7 4.5 1.9 5.9-.7 1.1-2.4 3.7-4.3 5.1-2-.4-4-.8-6-1zM18 7.5c1.3-1.8 3.3-3.2 4-3.7.9 0 4 .2 5.4.8.8.7 2.5 2.4 3.6 5.2-.7.6-2.8 2.9-3.9 4.1-1.4-.5-4.2-1.4-6.9-1.3C20 11.9 19 9 18 7.5zm15.3-.4c1.5 1.5 2.6 3.4 3.3 5.4l-1.1.9c-.6-.6-2.5-2.5-3.9-3.4-.7-2.1-1.9-4-3.5-5.5l.7-.7c1.6.8 3.1 2 4.5 3.3zm2 17.7c.2-1.9-.3-4.5-.5-5.4.7-1.6.8-4.8.8-5.7l1.1-.8c1.2 4 .7 8.3-1.4 11.9zm-14.9 7.3l.1-.5c1.5-.2 3.7-.8 5.1-1.4 1.7.2 3.9-.2 5.2-.5-3.1 2-6.8 2.9-10.4 2.4zm-8.7-4.5c-.4-.4-.8-.9-1.1-1.3h.1c1.7 1.1 4.2 2 5.2 2.3 1.1 1.3 2.9 2.4 4.2 3l-.1.4c-3.1-.5-6-2.1-8.3-4.4zm-1-19.2l1.2 1.2c-.5 1-.9 4.8-.9 6.4-.7.7-1.8 2-2.5 3.5-.3-.2-.6-.3-.8-.4-.4-3.8.7-7.6 3-10.7z"/><path class="st1" d="M15.9 5.5c2.4-1.8 5.3-2.9 8.3-3.3-3.8-.4-7.5.7-10.6 2.9-6.8 5-8.2 14.6-3.2 21.4l.1.1c-3.4-7.3-1.3-16.2 5.4-21.1z"/><path d="M17.5 7.1c1.2-1.6 2.8-2.9 3.8-3.6l-.3-.6c-.2 0-.4 0-.6.1-3 .4-5.8 1.8-8 3.9-.4.4-.8.8-1.2 1.3l1 .8c1.6-1 4.1-1.7 5.3-1.9zM22.2 4c-.8.5-2.6 1.9-3.8 3.5.9 1.5 1.8 3.9 2 4.8 2.5 0 5.2.8 6.6 1.3 1-1.1 2.9-3.1 3.6-3.8-1-2.6-2.6-4.3-3.3-4.9-1.3-.6-4.2-.8-5.1-.9zm5.1 10.6c-1.3-.5-4.3-1.5-7.1-1.4l-3.7 4.5c.2 1.3.9 4.2 2.7 6.5 2.7.3 5 .8 5.8 1 1.8-1.4 3.4-3.8 4.1-4.9-.3-1.4-1-4.4-1.8-5.7zm7.7 4.9c.2.8.6 2.6.6 4.2 0-.1.1-.2.1-.3 1.4-3.2 1.7-6.7.8-10l-.7.5c0 1.1-.1 4-.8 5.6zm-9.4 10.9c-1.5.6-3.5 1.2-4.9 1.4.2 0 .4 0 .6.1h2.3c.7-.1 1.3-.1 2-.3h.1c.4-.1.8-.2 1.3-.3h.1c.6-.2 1.2-.5 1.8-.7.1 0 .1-.1.2-.1.1-.1.2-.1.3-.2-1.2.1-2.6.3-3.8.1zm-9.8-2.6c.6-.6 1.7-2.3 2.5-3.4-1.8-2.5-2.5-5.4-2.7-6.7-.8-.3-2.6-.9-4.2-1.1-.7.7-1.8 1.9-2.3 3.3-.4 1.4 1.3 4.7 1.8 5.8 1.5 1 3.8 1.8 4.9 2.1zm16.7.1c.7-.7 1.3-1.4 1.9-2.2.7-1.3.2-4.2-.1-5.6-1.8.4-3.1.5-4.4.5-.7 1.1-2.3 3.6-4.3 5.2.3 1 .5 3 .7 3.8 2 .1 4.4-.5 5.2-.7.3-.3.7-.6 1-1zm-16.7.8c-.8-.3-2.6-.8-4.1-1.7l.3.3c2.1 2.2 4.9 3.7 7.9 4.3-1.2-.5-2.9-1.5-4.1-2.9zM28.7 4.2l-.4.4.1.1c1.4 1.5 2.5 3.3 3.2 5.2 1.4.8 3.1 2.5 3.8 3.2l.8-.6c-1.3-3.7-4-6.7-7.5-8.3zM8 19c.1.1.3.1.4.2.6-1.3 1.6-2.5 2.3-3.2 0-1.5.3-5 .8-6.3l-.9-.9c-2 2.9-3 6.6-2.6 10.2z" fill="none"/><path class="st0" d="M34 6.4C28 0 17.9-.2 11.5 5.8S4.9 22 11 28.3s16.1 6.6 22.5.6 6.6-16.1.5-22.5zm-5 24c-.1 0-.1.1-.2.1-.6.3-1.2.5-1.8.7h-.1c-.4.1-.8.2-1.3.3h-.1c-.7.1-1.3.2-2 .3h-2.3c-.2 0-.4 0-.6-.1 1.4-.2 3.5-.7 4.9-1.4 1.2.1 2.5 0 3.8-.2 0 .2-.1.2-.3.3zM12.5 6.8c2.2-2.1 5-3.4 8-3.9.2 0 .4-.1.6-.1l.4.6c-1 .7-2.7 2-3.8 3.6-1.4.3-3.9 1-5.5 2l-.9-.9c.3-.5.7-.9 1.2-1.3zm24 6.6c.9 3.3.7 6.9-.8 10 0 .1-.1.2-.1.3 0-1.6-.4-3.4-.6-4.2.6-1.6.7-4.5.7-5.5l.8-.6zM24.9 25.1c-.8-.2-3.1-.7-5.8-1-1.8-2.3-2.4-5.2-2.7-6.5l3.7-4.5c2.8-.1 5.8.9 7.1 1.4.8 1.3 1.6 4.3 1.8 5.6-.6 1.2-2.2 3.6-4.1 5zm5.8-15.4c-.8.7-2.6 2.7-3.6 3.8-1.5-.5-4.1-1.3-6.6-1.3-.3-.8-1.2-3.3-2-4.8 1.2-1.6 3-2.9 3.8-3.5 1 0 3.8.2 5.2.8.5.8 2.1 2.4 3.2 5zM9.1 19.9c.6-1.4 1.7-2.6 2.3-3.3 1.5.2 3.3.8 4.2 1.1.2 1.3.8 4.3 2.7 6.7-.8 1.1-1.9 2.8-2.5 3.4-1.1-.3-3.4-1.2-4.8-2.2-.6-1-2.3-4.3-1.9-5.7zm26.3-6.8c-.7-.7-2.4-2.4-3.8-3.2-.7-1.9-1.8-3.7-3.2-5.2l-.1-.1.4-.4c3.5 1.6 6.3 4.6 7.6 8.3l-.9.6zM11.6 9.7c-.5 1.3-.8 4.8-.8 6.3-.8.7-1.8 1.9-2.4 3.2-.1-.1-.3-.2-.4-.2-.4-3.6.6-7.2 2.7-10.2l.9.9zm.3 17.7l-.3-.3c1.5.8 3.3 1.4 4.1 1.7 1.2 1.3 2.9 2.4 4.1 2.9-3-.6-5.8-2.1-7.9-4.3zm14.3 2.2c-.1-.8-.4-2.8-.7-3.8 2-1.5 3.6-4 4.3-5.2 1.3.1 2.7-.1 4.4-.5.3 1.4.8 4.3.1 5.6-.6.8-1.2 1.5-1.9 2.2-.4.3-.7.7-1.1.9-.7.3-3.1.8-5.1.8z"/><path d="M24.8 25.4c-2.2-.4-4.7-.9-6-.9-.8 1-1.8 2.3-2.7 3.8l3-3.1 5.7.2z" fill="#5f5f89"/><path class="st7" d="M17.6 7.4c-1.7.4-4.2 1.3-5.6 2.1-.4 1-.9 5.1-.8 6.3l1.4-6 5-2.4zm13.6 2.7c-1 .8-2.7 2.6-3.6 3.8.8 2 1.5 4.1 2 5.9L28.3 14l2.9-3.9z"/><path class="st1" d="M7.2 18.1v8.1c0 4.3 2.2 8.2 6 10.6l9.3 5.9 9.4-5.9c3.8-2.4 6-6.3 6-10.6v-8H7.2z"/><path class="st7" d="M13.6 36c-3.5-2.2-5.5-5.9-5.5-9.8V19H37v7.1c0 4-2.1 7.7-5.6 9.8l-9 5.6-8.8-5.5z"/><path class="st0" d="M22.4 44.4L12.3 38c-4.2-2.6-6.6-7-6.6-11.8v-9.6h33.6v9.5c0 4.8-2.5 9.2-6.7 11.9l-10.2 6.4zM7.2 18.1v8.1c0 4.3 2.2 8.2 6 10.6l9.3 5.9 9.4-5.9c3.8-2.4 6-6.3 6-10.6v-8H7.2z"/><image width="1521" height="1294" xlink:href="4449854FDE33CB71.png" transform="translate(14.563 9.15) scale(.01123)" overflow="visible" opacity=".81"/><path class="st1" d="M19.9 17.5v2.9c0 .6-.1 1.1-.4 1.4-.3.3-.7.5-1.3.4-1.1 0-2.2-.1-3.3-.1v-9.5c.9-.8 1.9-1.5 3-2s1.7 0 1.7 1.3v2.5c0 .4-.1.7-.2.9-.2.2-.4.4-.7.5v.2c.8.2 1.2.7 1.2 1.5zM18 12.4c-.5.2-1 .4-1.5.7V16c.5-.2 1-.3 1.5-.5v-3.1zm-1.4 8.3c.5 0 1.1-.1 1.7-.1 0-1.2 0-2.4-.1-3.6-.6.1-1.1.2-1.6.4v3.3zm8.8-9c-.8-.1-1.6-.2-2.5-.2v3.4c.7 0 1.3 0 2 .1-.1.6-.2 1.2-.3 1.9-.6 0-1.1-.1-1.7-.1v3.7c.8 0 1.6.1 2.5.1-.1.6-.2 1.3-.3 1.9-1.3 0-2.6-.1-3.8-.1 0-4.2-.1-8.5-.1-12.7 1.3-.2 2.6-.2 4 0 0 .6.1 1.3.2 2zm5 .3c.1.6.2 1.2.3 1.9l-1.5-.9-.2 9.6c-.6 0-1.1 0-1.7-.1.1-3.4.1-6.9.2-10.3-.5-.2-1.1-.3-1.6-.4.1-.6.2-1.3.3-1.9 1.5.4 2.9 1.1 4.2 2.1z"/><image width="2691" height="1179" xlink:href="4449854FDE33CB73.png" transform="translate(7.533 23.713) scale(.01123)" overflow="visible" opacity=".81"/><path class="st1" d="M7.9 25.6c0-.8.4-1.2 1.2-1.2h.9c.8 0 1.2.5 1.2 1.6l-.1 1.7-1.2-.3c0-.6 0-1.2.1-1.8-.3 0-.6-.1-.9-.1 0 1.6-.1 3.2-.1 4.7.3.2.6.4.9.5 0-.7 0-1.3.1-2 .4.1.7.3 1.1.4 0 .6 0 1.3-.1 1.9 0 .5-.1.9-.3 1-.2.1-.5.1-.9-.2-.3-.2-.5-.4-.8-.6-.7-.6-1.1-1.3-1.1-2.1v-3.5zm4.2.5c0-1.1.5-1.7 1.3-1.7h1c.8 0 1.2.7 1.2 2-.1 2.1-.1 4.2-.2 6.3 0 .7-.1 1.2-.4 1.4-.2.3-.5.3-1 .1-.4-.1-.7-.3-1-.5-.4-.2-.7-.5-.9-.9-.2-.4-.3-.9-.2-1.5.1-1.7.1-3.4.2-5.2zm1 6.2c.3.1.7.3 1 .4l.3-6.7c-.3 0-.7 0-1-.1l-.3 6.4zm3.3 2.7l.3-10.6h1.2v1.2h.2c.1-.4.2-.7.3-1 .1-.2.3-.4.5-.4h.2c.3 0 .5.2.6.5s.2.9.2 1.6V30c-.4 0-.8-.1-1.2-.1 0-1.2 0-2.5.1-3.7H18c-.1 3-.1 6.1-.2 9.1-.6 0-1-.2-1.4-.3zM24 24.8c.2.4.3.9.3 1.7l.1 9.4c-.4 0-.9.1-1.3.1 0-3.2 0-6.4-.1-9.6h-1.1V36c-.4 0-.9 0-1.3-.1 0-3.8.1-7.6.1-11.5h1.2v1.3h.2c.1-.9.4-1.4.9-1.4h.3c.2-.1.5.1.7.5zm1.2 1.7c0-1.5.4-2.3 1.2-2.3h1c.4 0 .7.2.9.5.2.3.3.9.4 1.6 0 1.2.1 2.4.1 3.7-.7.1-1.5.2-2.3.3 0 1.2.1 2.4.1 3.5.3-.1.7-.1 1-.2 0-.7 0-1.5-.1-2.2.4-.1.8-.1 1.2-.2l.1 1.8c0 .7-.1 1.3-.2 1.7-.2.4-.5.7-.9.8-.3.1-.7.2-1 .2-.5.1-.8 0-1-.4-.2-.3-.3-.9-.3-1.7-.1-2.4-.1-4.7-.2-7.1zm1.3 2.1c.3 0 .7-.1 1-.1V26h-1v2.6zm3.4 6c-.1-3.5-.3-6.9-.4-10.4h1.2c0 .4.1.7.1 1.1h.2c0-.4.1-.6.2-.9.1-.2.3-.3.5-.3h.2c.3 0 .5.1.6.4.1.3.2.7.3 1.3 0 1 .1 2 .1 2.9l-1.2.3c0-1.1-.1-2.1-.1-3.2-.3 0-.5 0-.8.1l.3 8.2c-.3.2-.7.4-1.2.5zm3.7-5.1c.4-.1.8-.3 1.1-.4 0 .6 0 1.3.1 1.9.3-.2.6-.3.9-.5v-1.1c0-.1 0-.3-.1-.3 0-.1-.1-.1-.2-.1-.4-.2-.9-.4-1.3-.6-.4-.2-.6-.7-.6-1.3v-1.2c0-1.2.3-1.8 1.2-1.8h.9c.4 0 .7.1.9.3.2.2.3.5.3.9v1.1c-.4.1-.7.2-1.1.3v-1.6c-.3 0-.6.1-.9.1v1.1c0 .2 0 .3.1.4 0 .1.1.1.2.2l1.2.6c.2.1.4.2.4.3s.1.3.1.6v.9c0 .9-.3 1.6-1.1 2.2-.3.2-.5.4-.8.6-.4.3-.7.3-.9.2-.2-.2-.3-.5-.3-1.1 0-.6-.1-1.1-.1-1.7z"/><path d="M32.8 18.6h0c0 2.5 2 4.5 4.6 4.5v-4.5h-4.6z" fill="none" stroke="#fff" stroke-width=".795" stroke-miterlimit="10"/></g></svg>